<svg id="svg" version="1.1" xmlns="http://www.w3.org/2000/svg" xmlns:xlink="http://www.w3.org/1999/xlink" width="400" height="400" viewBox="0, 0, 400,400"><g id="svgg"><path id="path0" d="M117.200 80.435 C 115.047 80.851,114.127 81.848,113.805 84.117 C 113.114 88.981,113.795 309.386,114.508 311.474 C 115.579 314.612,117.908 317.292,120.838 318.756 L 123.328 320.000 171.364 320.000 C 225.811 320.000,228.120 319.884,240.400 316.531 C 241.610 316.201,243.140 315.784,243.800 315.606 C 277.619 306.442,293.496 275.377,283.993 236.965 C 282.481 230.853,278.741 221.797,277.509 221.267 C 277.339 221.193,277.200 220.912,277.200 220.642 C 277.200 220.372,276.880 219.802,276.489 219.375 C 276.098 218.949,275.336 217.970,274.796 217.200 C 269.199 209.219,257.617 200.333,248.807 197.263 C 247.041 196.647,247.270 196.246,250.700 193.947 C 258.751 188.551,265.242 181.928,269.692 174.571 C 271.429 171.699,274.000 166.239,274.000 165.422 C 274.000 165.106,274.159 164.749,274.352 164.630 C 274.546 164.510,274.803 164.004,274.924 163.506 C 275.045 163.008,275.350 161.880,275.602 161.000 C 277.270 155.175,277.769 150.770,277.780 141.800 C 277.790 133.733,277.673 132.070,276.755 127.200 C 273.507 109.969,263.883 97.314,248.200 89.652 C 236.233 83.805,224.388 81.270,204.985 80.403 C 194.251 79.923,119.709 79.951,117.200 80.435 M193.000 135.614 C 207.551 137.263,213.586 143.274,214.271 156.800 C 214.801 167.250,210.151 174.462,200.600 178.004 C 200.160 178.167,199.326 178.489,198.747 178.720 C 196.382 179.663,187.376 180.836,183.400 180.718 L 179.400 180.600 179.296 158.400 C 179.239 146.190,179.278 135.975,179.384 135.700 C 179.624 135.072,187.758 135.021,193.000 135.614 M193.532 221.217 C 208.443 222.826,214.400 228.977,214.400 242.762 C 214.400 258.625,205.932 265.683,186.800 265.767 L 179.400 265.800 179.296 243.800 C 179.239 231.700,179.278 221.575,179.384 221.300 C 179.626 220.666,187.969 220.617,193.532 221.217 " stroke="none" fill="#fcfbfb" fill-rule="evenodd"></path><path id="path1" d="M30.300 0.292 C 29.255 0.375,28.400 0.614,28.400 0.822 C 28.400 1.030,27.961 1.200,27.424 1.200 C 26.887 1.200,26.336 1.380,26.200 1.600 C 26.064 1.820,25.513 2.000,24.976 2.000 C 24.439 2.000,23.999 2.135,23.997 2.300 C 23.993 2.659,22.056 3.600,21.320 3.600 C 21.034 3.600,20.800 3.780,20.800 4.000 C 20.800 4.220,20.440 4.400,20.000 4.400 C 19.560 4.400,19.200 4.580,19.200 4.800 C 19.200 5.020,18.975 5.200,18.700 5.201 C 18.425 5.201,17.570 5.741,16.800 6.400 C 16.030 7.059,15.250 7.599,15.067 7.599 C 14.339 7.601,7.887 14.220,7.675 15.182 C 7.606 15.494,7.201 16.052,6.775 16.422 C 6.349 16.791,6.000 17.398,6.000 17.771 C 6.000 18.143,5.820 18.336,5.600 18.200 C 5.380 18.064,5.200 18.233,5.200 18.576 C 5.200 18.919,5.020 19.200,4.800 19.200 C 4.580 19.200,4.400 19.560,4.400 20.000 C 4.400 20.440,4.220 20.800,4.000 20.800 C 3.780 20.800,3.600 21.160,3.600 21.600 C 3.600 22.040,3.420 22.400,3.200 22.400 C 2.980 22.400,2.800 22.760,2.800 23.200 C 2.800 23.640,2.640 24.000,2.445 24.000 C 2.250 24.000,1.980 24.540,1.845 25.200 C 1.710 25.860,1.490 26.938,1.355 27.596 C 1.221 28.254,0.967 28.703,0.791 28.595 C 0.616 28.486,0.356 29.883,0.215 31.699 C -0.315 38.491,0.161 371.320,0.700 371.500 C 0.975 371.592,1.200 372.091,1.200 372.610 C 1.200 373.128,1.380 373.664,1.600 373.800 C 1.820 373.936,2.000 374.487,2.000 375.024 C 2.000 375.561,2.180 376.000,2.400 376.000 C 2.620 376.000,2.800 376.360,2.800 376.800 C 2.800 377.240,2.980 377.600,3.200 377.600 C 3.420 377.600,3.600 377.960,3.600 378.400 C 3.600 378.840,3.780 379.200,4.000 379.200 C 4.220 379.200,4.400 379.560,4.400 380.000 C 4.400 380.440,4.580 380.800,4.800 380.800 C 5.020 380.800,5.200 381.081,5.200 381.424 C 5.200 381.767,5.380 381.936,5.600 381.800 C 5.820 381.664,6.000 381.884,6.000 382.288 C 6.000 382.693,6.360 383.283,6.800 383.600 C 7.240 383.917,7.600 384.412,7.600 384.699 C 7.600 385.220,9.379 387.377,11.117 388.963 C 11.621 389.423,12.611 390.340,13.317 391.000 C 14.023 391.660,15.095 392.455,15.700 392.768 C 16.305 393.080,16.800 393.485,16.800 393.668 C 16.800 393.850,17.171 394.000,17.624 394.000 C 18.077 394.000,18.336 394.180,18.200 394.400 C 18.064 394.620,18.233 394.800,18.576 394.800 C 18.919 394.800,19.200 394.980,19.200 395.200 C 19.200 395.420,19.560 395.600,20.000 395.600 C 20.440 395.600,20.800 395.780,20.800 396.000 C 20.800 396.220,21.160 396.400,21.600 396.400 C 22.040 396.400,22.400 396.580,22.400 396.800 C 22.400 397.020,22.760 397.200,23.200 397.200 C 23.640 397.200,24.000 397.380,24.000 397.600 C 24.000 397.820,24.439 398.000,24.976 398.000 C 25.513 398.000,26.064 398.180,26.200 398.400 C 26.336 398.620,26.872 398.800,27.390 398.800 C 27.909 398.800,28.408 399.025,28.500 399.300 C 28.745 400.036,371.255 400.036,371.500 399.300 C 371.592 399.025,372.091 398.800,372.610 398.800 C 373.128 398.800,373.664 398.620,373.800 398.400 C 373.936 398.180,374.487 398.000,375.024 398.000 C 375.561 398.000,376.000 397.820,376.000 397.600 C 376.000 397.380,376.360 397.200,376.800 397.200 C 377.240 397.200,377.600 397.020,377.600 396.800 C 377.600 396.580,377.960 396.400,378.400 396.400 C 378.840 396.400,379.200 396.220,379.200 396.000 C 379.200 395.780,379.560 395.600,380.000 395.600 C 380.440 395.600,380.800 395.420,380.800 395.200 C 380.800 394.980,381.081 394.800,381.424 394.800 C 381.767 394.800,381.936 394.620,381.800 394.400 C 381.664 394.180,381.923 394.000,382.376 394.000 C 382.829 394.000,383.200 393.850,383.200 393.668 C 383.200 393.485,383.695 393.080,384.300 392.768 C 384.905 392.455,385.977 391.660,386.683 391.000 C 387.389 390.340,388.379 389.423,388.883 388.963 C 390.363 387.613,392.190 385.406,392.325 384.806 C 392.394 384.501,392.799 383.948,393.225 383.578 C 393.651 383.209,394.000 382.602,394.000 382.229 C 394.000 381.857,394.180 381.664,394.400 381.800 C 394.620 381.936,394.800 381.767,394.800 381.424 C 394.800 381.081,394.980 380.800,395.200 380.800 C 395.420 380.800,395.600 380.566,395.600 380.280 C 395.600 379.544,396.541 377.607,396.900 377.603 C 397.065 377.601,397.200 377.240,397.200 376.800 C 397.200 376.360,397.380 376.000,397.600 376.000 C 397.820 376.000,398.000 375.561,398.000 375.024 C 398.000 374.487,398.180 373.936,398.400 373.800 C 398.620 373.664,398.800 373.128,398.800 372.610 C 398.800 372.091,399.025 371.592,399.300 371.500 C 399.839 371.320,400.315 38.487,399.786 31.699 C 399.644 29.883,399.384 28.486,399.209 28.595 C 399.033 28.703,398.779 28.254,398.645 27.596 C 398.510 26.938,398.290 25.860,398.155 25.200 C 398.020 24.540,397.750 24.000,397.555 24.000 C 397.360 24.000,397.200 23.640,397.200 23.200 C 397.200 22.760,397.065 22.399,396.900 22.397 C 396.541 22.393,395.600 20.456,395.600 19.720 C 395.600 19.434,395.420 19.200,395.200 19.200 C 394.980 19.200,394.800 18.919,394.800 18.576 C 394.800 18.233,394.620 18.064,394.400 18.200 C 394.180 18.336,394.000 18.116,394.000 17.712 C 394.000 17.307,393.640 16.717,393.200 16.400 C 392.760 16.083,392.400 15.578,392.400 15.278 C 392.400 14.785,391.555 13.784,388.885 11.115 C 386.445 8.674,385.237 7.600,384.933 7.599 C 384.750 7.599,383.970 7.059,383.200 6.400 C 382.430 5.741,381.575 5.201,381.300 5.201 C 381.025 5.200,380.800 5.020,380.800 4.800 C 380.800 4.580,380.440 4.400,380.000 4.400 C 379.560 4.400,379.200 4.220,379.200 4.000 C 379.200 3.780,378.966 3.600,378.680 3.600 C 377.944 3.600,376.007 2.659,376.003 2.300 C 376.001 2.135,375.561 2.000,375.024 2.000 C 374.487 2.000,373.936 1.820,373.800 1.600 C 373.664 1.380,373.128 1.200,372.610 1.200 C 372.091 1.200,371.592 0.975,371.500 0.700 C 371.344 0.231,36.082 -0.170,30.300 0.292 M215.111 80.210 C 224.256 81.156,228.560 81.951,236.000 84.068 C 236.770 84.287,237.897 84.562,238.505 84.679 C 239.113 84.796,239.708 85.051,239.829 85.246 C 239.949 85.441,240.309 85.600,240.628 85.600 C 240.947 85.600,242.062 85.978,243.104 86.440 C 244.147 86.902,245.360 87.419,245.800 87.589 C 247.072 88.081,250.580 89.769,250.800 89.995 C 250.910 90.108,251.405 90.425,251.900 90.700 C 254.135 91.941,254.608 92.243,255.355 92.900 C 255.793 93.285,256.372 93.600,256.642 93.600 C 256.912 93.600,257.193 93.736,257.267 93.903 C 257.340 94.070,258.210 94.818,259.200 95.565 C 264.172 99.319,269.232 105.552,272.217 111.600 C 273.032 113.250,273.856 114.913,274.049 115.295 C 274.242 115.677,274.400 116.262,274.400 116.595 C 274.400 116.928,274.580 117.200,274.800 117.200 C 275.020 117.200,275.200 117.639,275.200 118.176 C 275.200 118.713,275.380 119.264,275.600 119.400 C 275.820 119.536,276.000 120.166,276.000 120.800 C 276.000 121.434,276.180 122.064,276.400 122.200 C 276.620 122.336,276.800 123.031,276.800 123.744 C 276.800 124.457,276.963 125.211,277.161 125.420 C 278.404 126.728,279.252 141.857,278.483 149.000 C 277.690 156.366,277.536 157.385,277.161 157.780 C 276.963 157.989,276.800 158.743,276.800 159.456 C 276.800 160.169,276.620 160.864,276.400 161.000 C 276.180 161.136,276.000 161.676,276.000 162.200 C 276.000 162.724,275.820 163.264,275.600 163.400 C 275.380 163.536,275.200 163.999,275.200 164.429 C 275.200 164.859,275.020 165.568,274.800 166.005 C 274.580 166.442,274.220 167.158,274.000 167.595 C 273.780 168.032,273.600 168.662,273.600 168.995 C 273.600 169.328,273.420 169.600,273.200 169.600 C 272.980 169.600,272.800 169.924,272.800 170.320 C 272.800 170.716,272.635 171.211,272.433 171.420 C 272.231 171.629,271.482 172.880,270.768 174.200 C 268.038 179.246,261.574 186.747,256.800 190.408 C 255.810 191.167,254.799 191.979,254.553 192.213 C 254.307 192.446,252.914 193.414,251.457 194.363 C 249.124 195.883,248.436 196.800,249.628 196.800 C 250.525 196.800,259.596 201.531,260.400 202.418 C 260.510 202.539,261.230 203.071,262.000 203.600 C 262.770 204.129,263.490 204.671,263.600 204.804 C 263.710 204.937,264.181 205.306,264.646 205.623 C 266.747 207.057,272.722 213.143,274.800 215.968 C 275.350 216.715,276.025 217.555,276.300 217.835 C 276.575 218.114,276.800 218.536,276.800 218.771 C 276.800 219.007,276.950 219.200,277.132 219.200 C 277.315 219.200,277.720 219.695,278.032 220.300 C 278.344 220.905,278.693 221.490,278.807 221.600 C 279.029 221.813,281.077 226.006,282.170 228.486 C 288.529 242.920,289.234 269.048,283.629 282.600 C 282.735 284.760,280.568 289.016,280.302 289.133 C 280.136 289.207,280.000 289.444,280.000 289.661 C 280.000 290.144,277.573 293.748,277.123 293.933 C 276.945 294.007,276.800 294.245,276.800 294.462 C 276.800 294.679,276.575 295.095,276.300 295.387 C 276.025 295.678,275.080 296.768,274.200 297.810 C 271.746 300.714,264.235 307.179,263.300 307.193 C 263.025 307.197,262.800 307.350,262.800 307.532 C 262.800 307.715,262.305 308.120,261.700 308.432 C 261.095 308.744,260.510 309.098,260.400 309.219 C 260.174 309.468,251.887 313.512,250.500 314.051 C 250.005 314.243,249.195 314.568,248.700 314.774 C 244.479 316.526,236.252 318.568,229.200 319.613 C 219.924 320.988,212.493 321.183,169.400 321.184 C 119.410 321.186,121.333 321.333,117.192 317.192 C 112.428 312.428,112.761 321.976,112.889 193.800 C 113.011 71.149,112.792 81.521,115.297 80.130 C 116.765 79.315,207.162 79.387,215.111 80.210 M180.000 158.062 L 180.000 180.124 185.522 179.873 C 191.655 179.594,197.161 178.670,199.295 177.561 C 199.677 177.362,200.256 177.200,200.582 177.200 C 200.909 177.200,201.786 176.857,202.533 176.438 C 203.280 176.018,204.320 175.433,204.845 175.138 C 211.231 171.542,214.669 162.807,213.256 153.767 C 211.217 140.718,203.606 136.017,184.500 136.003 L 180.000 136.000 180.000 158.062 M180.000 243.354 L 180.000 265.200 185.700 265.199 C 194.372 265.199,203.052 263.328,205.515 260.929 C 205.798 260.654,206.538 260.127,207.160 259.760 C 207.783 259.392,208.592 258.583,208.960 257.960 C 209.327 257.338,209.854 256.598,210.129 256.315 C 213.956 252.385,214.649 238.541,211.376 231.386 C 210.252 228.928,207.950 226.393,206.100 225.578 C 205.385 225.263,204.800 224.869,204.800 224.702 C 204.800 224.536,204.451 224.400,204.024 224.400 C 203.597 224.400,203.136 224.220,203.000 224.000 C 202.864 223.780,202.324 223.600,201.800 223.600 C 201.276 223.600,200.736 223.420,200.600 223.200 C 200.464 222.980,199.722 222.800,198.950 222.800 C 198.179 222.800,197.244 222.640,196.874 222.445 C 196.503 222.250,192.555 221.960,188.100 221.799 L 180.000 221.507 180.000 243.354 " stroke="none" fill="#fc4c53" fill-rule="evenodd"></path><path id="path2" d="M203.900 79.893 C 204.835 79.977,206.365 79.977,207.300 79.893 C 208.235 79.809,207.470 79.740,205.600 79.740 C 203.730 79.740,202.965 79.809,203.900 79.893 M260.400 96.925 C 260.400 96.994,260.985 97.579,261.700 98.225 L 263.000 99.400 261.825 98.100 C 260.730 96.888,260.400 96.616,260.400 96.925 M264.400 101.000 C 265.146 101.770,265.847 102.400,265.957 102.400 C 266.067 102.400,265.546 101.770,264.800 101.000 C 264.054 100.230,263.353 99.600,263.243 99.600 C 263.133 99.600,263.654 100.230,264.400 101.000 M278.109 134.000 C 278.109 134.990,278.187 135.395,278.282 134.900 C 278.378 134.405,278.378 133.595,278.282 133.100 C 278.187 132.605,278.109 133.010,278.109 134.000 M179.860 135.900 C 179.758 136.065,181.232 136.152,183.137 136.093 C 189.246 135.904,189.932 135.742,184.924 135.670 C 182.242 135.631,179.963 135.735,179.860 135.900 M278.524 141.800 C 278.526 143.120,278.601 143.612,278.690 142.893 C 278.779 142.174,278.777 141.094,278.686 140.493 C 278.595 139.892,278.522 140.480,278.524 141.800 M278.109 149.600 C 278.109 150.590,278.187 150.995,278.282 150.500 C 278.378 150.005,278.378 149.195,278.282 148.700 C 278.187 148.205,278.109 148.610,278.109 149.600 M208.378 172.700 L 207.000 174.200 208.500 172.822 C 209.896 171.538,210.184 171.200,209.878 171.200 C 209.812 171.200,209.137 171.875,208.378 172.700 M187.300 180.276 C 187.685 180.376,188.315 180.376,188.700 180.276 C 189.085 180.175,188.770 180.093,188.000 180.093 C 187.230 180.093,186.915 180.175,187.300 180.276 M262.778 184.300 L 261.400 185.800 262.900 184.422 C 264.296 183.138,264.584 182.800,264.278 182.800 C 264.212 182.800,263.537 183.475,262.778 184.300 M259.578 187.500 L 258.200 189.000 259.700 187.622 C 261.096 186.338,261.384 186.000,261.078 186.000 C 261.012 186.000,260.337 186.675,259.578 187.500 M188.505 221.487 C 189.114 221.579,190.014 221.577,190.505 221.482 C 190.997 221.387,190.500 221.311,189.400 221.314 C 188.300 221.317,187.897 221.395,188.505 221.487 M192.900 221.876 C 193.285 221.976,193.915 221.976,194.300 221.876 C 194.685 221.775,194.370 221.693,193.600 221.693 C 192.830 221.693,192.515 221.775,192.900 221.876 M207.600 226.125 C 207.600 226.194,208.185 226.779,208.900 227.425 L 210.200 228.600 209.025 227.300 C 207.930 226.088,207.600 225.816,207.600 226.125 M286.934 256.800 C 286.934 258.450,287.005 259.125,287.091 258.300 C 287.178 257.475,287.178 256.125,287.091 255.300 C 287.005 254.475,286.934 255.150,286.934 256.800 M286.914 263.400 C 286.917 264.500,286.995 264.903,287.087 264.295 C 287.179 263.686,287.177 262.786,287.082 262.295 C 286.987 261.803,286.911 262.300,286.914 263.400 M269.375 302.100 L 268.200 303.400 269.500 302.225 C 270.215 301.579,270.800 300.994,270.800 300.925 C 270.800 300.616,270.470 300.888,269.375 302.100 M147.931 320.700 C 160.323 320.759,180.483 320.759,192.731 320.700 C 204.979 320.641,194.840 320.593,170.200 320.593 C 145.560 320.593,135.539 320.641,147.931 320.700 " stroke="none" fill="#fc8484" fill-rule="evenodd"></path><path id="path3" d="M212.100 80.287 C 212.705 80.378,213.695 80.378,214.300 80.287 C 214.905 80.195,214.410 80.120,213.200 80.120 C 211.990 80.120,211.495 80.195,212.100 80.287 M219.905 81.083 C 220.402 81.179,221.122 81.175,221.505 81.075 C 221.887 80.975,221.480 80.896,220.600 80.901 C 219.720 80.905,219.407 80.987,219.905 81.083 M225.300 81.876 C 225.685 81.976,226.315 81.976,226.700 81.876 C 227.085 81.775,226.770 81.693,226.000 81.693 C 225.230 81.693,224.915 81.775,225.300 81.876 M112.997 195.600 C 112.997 256.870,113.043 281.935,113.100 251.300 C 113.157 220.665,113.157 170.535,113.100 139.900 C 113.043 109.265,112.997 134.330,112.997 195.600 M263.600 99.800 C 264.795 101.010,265.863 102.000,265.973 102.000 C 266.083 102.000,265.195 101.010,264.000 99.800 C 262.805 98.590,261.737 97.600,261.627 97.600 C 261.517 97.600,262.405 98.590,263.600 99.800 M267.200 104.000 C 267.897 104.880,268.557 105.600,268.667 105.600 C 268.777 105.600,268.297 104.880,267.600 104.000 C 266.903 103.120,266.243 102.400,266.133 102.400 C 266.023 102.400,266.503 103.120,267.200 104.000 M277.868 130.600 C 278.171 132.577,278.402 132.914,278.394 131.367 C 278.391 130.725,278.216 129.930,278.005 129.600 C 277.745 129.191,277.701 129.510,277.868 130.600 M191.305 136.287 C 191.914 136.379,192.814 136.377,193.305 136.282 C 193.797 136.187,193.300 136.111,192.200 136.114 C 191.100 136.117,190.697 136.195,191.305 136.287 M179.795 158.200 L 179.800 180.200 183.200 180.223 L 186.600 180.247 183.303 180.108 L 180.007 179.969 179.898 158.084 L 179.790 136.200 179.795 158.200 M278.595 142.000 C 278.591 147.073,278.612 147.224,278.951 144.499 C 279.163 142.794,279.165 140.566,278.956 139.099 C 278.642 136.892,278.599 137.231,278.595 142.000 M207.785 141.908 C 209.742 143.970,210.620 144.665,209.549 143.302 C 208.881 142.452,208.504 142.086,206.982 140.808 C 206.332 140.262,206.693 140.757,207.785 141.908 M212.644 150.600 C 212.973 152.071,213.202 152.390,213.194 151.367 C 213.191 150.945,213.005 150.330,212.782 150.000 C 212.485 149.562,212.448 149.724,212.644 150.600 M278.054 151.867 C 278.025 152.344,277.896 153.064,277.770 153.467 C 277.552 154.161,277.564 154.162,277.996 153.488 C 278.247 153.097,278.375 152.377,278.281 151.888 C 278.109 151.001,278.109 151.001,278.054 151.867 M213.737 158.200 C 213.739 159.960,213.809 160.630,213.893 159.689 C 213.978 158.749,213.977 157.309,213.891 156.489 C 213.805 155.670,213.736 156.440,213.737 158.200 M208.181 172.500 L 206.600 174.200 208.300 172.619 C 209.881 171.148,210.184 170.800,209.881 170.800 C 209.816 170.800,209.051 171.565,208.181 172.500 M269.400 176.000 C 269.059 176.660,268.869 177.200,268.979 177.200 C 269.089 177.200,269.459 176.660,269.800 176.000 C 270.141 175.340,270.331 174.800,270.221 174.800 C 270.111 174.800,269.741 175.340,269.400 176.000 M192.800 179.200 C 191.996 179.457,191.957 179.523,192.600 179.532 C 193.040 179.538,193.760 179.389,194.200 179.200 C 195.219 178.762,194.168 178.762,192.800 179.200 M261.978 185.500 L 260.600 187.000 262.100 185.622 C 263.496 184.338,263.784 184.000,263.478 184.000 C 263.412 184.000,262.737 184.675,261.978 185.500 M257.256 189.613 C 256.016 190.646,256.575 190.635,257.891 189.600 C 258.450 189.160,258.749 188.806,258.554 188.813 C 258.359 188.821,257.775 189.181,257.256 189.613 M181.913 221.495 C 183.076 221.576,184.876 221.576,185.913 221.493 C 186.951 221.411,186.000 221.345,183.800 221.346 C 181.600 221.347,180.751 221.414,181.913 221.495 M189.107 221.890 C 189.826 221.979,190.906 221.977,191.507 221.886 C 192.108 221.795,191.520 221.722,190.200 221.724 C 188.880 221.726,188.388 221.801,189.107 221.890 M179.795 243.600 L 179.800 265.400 185.700 265.417 L 191.601 265.433 185.804 265.306 L 180.007 265.179 179.898 243.489 L 179.789 221.800 179.795 243.600 M213.740 242.800 C 213.740 244.670,213.809 245.435,213.893 244.500 C 213.977 243.565,213.977 242.035,213.893 241.100 C 213.809 240.165,213.740 240.930,213.740 242.800 M286.093 244.400 C 286.093 245.170,286.175 245.485,286.276 245.100 C 286.376 244.715,286.376 244.085,286.276 243.700 C 286.175 243.315,286.093 243.630,286.093 244.400 M286.914 252.200 C 286.917 253.300,286.995 253.703,287.087 253.095 C 287.179 252.486,287.177 251.586,287.082 251.095 C 286.987 250.603,286.911 251.100,286.914 252.200 M287.355 259.800 C 287.356 262.660,287.420 263.778,287.497 262.283 C 287.574 260.789,287.574 258.449,287.496 257.083 C 287.418 255.718,287.355 256.940,287.355 259.800 M286.909 266.800 C 286.909 267.790,286.987 268.195,287.082 267.700 C 287.178 267.205,287.178 266.395,287.082 265.900 C 286.987 265.405,286.909 265.810,286.909 266.800 M271.385 300.500 L 269.400 302.600 271.500 300.615 C 273.451 298.771,273.783 298.400,273.485 298.400 C 273.422 298.400,272.477 299.345,271.385 300.500 M113.444 310.600 C 113.773 312.071,114.002 312.390,113.994 311.367 C 113.991 310.945,113.805 310.330,113.582 310.000 C 113.285 309.562,113.248 309.724,113.444 310.600 M240.000 317.200 C 239.176 317.464,239.141 317.526,239.800 317.554 C 240.240 317.573,240.870 317.413,241.200 317.200 C 241.901 316.747,241.414 316.747,240.000 317.200 M231.300 319.076 C 231.685 319.176,232.315 319.176,232.700 319.076 C 233.085 318.975,232.770 318.893,232.000 318.893 C 231.230 318.893,230.915 318.975,231.300 319.076 M225.700 319.876 C 226.085 319.976,226.715 319.976,227.100 319.876 C 227.485 319.775,227.170 319.693,226.400 319.693 C 225.630 319.693,225.315 319.775,225.700 319.876 M215.900 320.689 C 216.615 320.778,217.785 320.778,218.500 320.689 C 219.215 320.601,218.630 320.528,217.200 320.528 C 215.770 320.528,215.185 320.601,215.900 320.689 M147.900 321.100 C 160.055 321.159,179.945 321.159,192.100 321.100 C 204.255 321.041,194.310 320.993,170.000 320.993 C 145.690 320.993,135.745 321.041,147.900 321.100 " stroke="none" fill="#fc7274" fill-rule="evenodd"></path><path id="path4" d="M116.800 80.070 C 115.333 80.487,114.000 81.456,114.000 82.106 C 114.000 82.317,114.315 82.108,114.700 81.642 C 116.077 79.976,117.905 79.918,164.992 80.063 C 189.636 80.138,207.910 80.087,205.600 79.949 C 198.434 79.521,118.348 79.630,116.800 80.070 M210.033 80.545 C 210.125 80.625,212.000 80.787,214.200 80.906 C 216.863 81.051,217.665 81.010,216.600 80.785 C 215.034 80.453,209.704 80.259,210.033 80.545 M218.433 81.351 C 218.525 81.434,219.860 81.602,221.400 81.725 C 223.166 81.865,223.757 81.827,223.000 81.621 C 221.784 81.290,218.127 81.074,218.433 81.351 M225.400 82.400 C 226.060 82.568,226.960 82.714,227.400 82.725 L 228.200 82.744 227.400 82.400 C 226.960 82.211,226.060 82.065,225.400 82.075 L 224.200 82.095 225.400 82.400 M113.452 83.700 C 113.319 84.195,113.208 134.655,113.205 195.833 C 113.200 307.234,113.242 310.934,114.515 312.200 C 114.785 312.468,114.836 312.367,114.670 311.896 C 113.637 308.962,113.578 301.943,113.687 194.500 C 113.749 133.065,113.776 82.800,113.747 82.800 C 113.717 82.800,113.585 83.205,113.452 83.700 M229.400 83.200 C 229.840 83.389,230.560 83.544,231.000 83.544 L 231.800 83.544 231.000 83.200 C 230.560 83.011,229.840 82.856,229.400 82.856 L 228.600 82.856 229.400 83.200 M232.800 84.000 C 233.130 84.213,233.760 84.378,234.200 84.366 L 235.000 84.344 234.200 84.000 C 233.004 83.486,232.005 83.486,232.800 84.000 M235.800 84.800 C 236.996 85.314,237.995 85.314,237.200 84.800 C 236.870 84.587,236.240 84.422,235.800 84.434 L 235.000 84.456 235.800 84.800 M238.400 85.600 C 238.730 85.813,239.270 85.988,239.600 85.988 C 240.133 85.988,240.133 85.945,239.600 85.600 C 239.270 85.387,238.730 85.212,238.400 85.212 C 237.867 85.212,237.867 85.255,238.400 85.600 M242.800 86.995 C 242.800 87.205,245.535 88.411,245.949 88.383 C 246.270 88.362,243.501 86.839,243.100 86.817 C 242.935 86.808,242.800 86.888,242.800 86.995 M246.400 88.537 C 246.400 88.659,247.525 89.310,248.900 89.984 C 258.916 94.893,266.969 102.733,271.813 112.293 C 272.568 113.782,273.188 115.214,273.193 115.476 C 273.197 115.738,273.384 116.066,273.608 116.205 C 275.706 117.501,268.926 105.968,265.127 101.777 C 260.057 96.184,246.400 86.528,246.400 88.537 M274.000 117.073 C 274.000 117.224,274.342 118.349,274.760 119.573 C 275.178 120.798,275.637 122.316,275.780 122.947 C 275.922 123.578,276.144 123.990,276.271 123.862 C 276.399 123.734,276.004 122.093,275.393 120.215 C 274.397 117.152,274.000 116.257,274.000 117.073 M276.475 125.400 C 276.465 126.060,276.611 126.960,276.800 127.400 L 277.144 128.200 277.125 127.400 C 277.114 126.960,276.968 126.060,276.800 125.400 L 276.495 124.200 276.475 125.400 M277.286 130.200 C 277.283 131.080,277.424 132.250,277.600 132.800 L 277.920 133.800 277.937 132.800 C 277.946 132.250,277.805 131.080,277.623 130.200 L 277.292 128.600 277.286 130.200 M179.384 135.700 C 179.278 135.975,179.239 146.190,179.296 158.400 L 179.400 180.600 184.101 180.620 L 188.801 180.640 184.197 180.507 L 179.593 180.375 179.697 158.087 L 179.800 135.800 187.400 135.839 C 192.398 135.865,194.178 135.777,192.600 135.583 C 188.354 135.059,179.599 135.137,179.384 135.700 M278.162 141.800 C 278.162 145.320,278.224 146.706,278.298 144.881 C 278.372 143.056,278.372 140.176,278.297 138.481 C 278.222 136.786,278.161 138.280,278.162 141.800 M196.200 136.400 C 196.860 136.568,197.850 136.705,198.400 136.705 C 199.292 136.705,199.270 136.672,198.200 136.400 C 197.540 136.232,196.550 136.095,196.000 136.095 C 195.108 136.095,195.130 136.128,196.200 136.400 M199.600 136.946 C 199.600 137.035,200.539 137.415,201.688 137.791 C 207.761 139.777,212.056 144.905,213.287 151.639 C 213.544 153.048,213.822 153.891,213.904 153.514 C 214.418 151.150,211.803 145.097,208.924 141.988 C 206.613 139.491,199.600 135.699,199.600 136.946 M277.490 151.150 C 277.331 151.893,277.220 153.063,277.244 153.750 C 277.281 154.817,277.341 154.736,277.649 153.200 C 277.848 152.210,277.959 151.040,277.896 150.600 C 277.818 150.059,277.686 150.237,277.490 151.150 M214.146 158.200 C 214.147 160.400,214.214 161.249,214.295 160.087 C 214.376 158.924,214.376 157.124,214.293 156.087 C 214.211 155.049,214.145 156.000,214.146 158.200 M276.649 156.215 C 276.512 156.573,276.418 157.346,276.440 157.933 C 276.473 158.791,276.552 158.695,276.846 157.440 C 277.222 155.839,277.095 155.053,276.649 156.215 M275.849 159.815 C 275.712 160.173,275.615 160.766,275.634 161.133 C 275.653 161.500,275.827 161.269,276.021 160.620 C 276.398 159.358,276.265 158.733,275.849 159.815 M274.951 163.144 C 274.811 163.844,274.540 164.514,274.348 164.632 C 274.157 164.750,274.000 165.106,274.000 165.422 C 274.000 166.239,271.429 171.699,269.692 174.571 C 265.242 181.928,258.751 188.551,250.700 193.947 C 247.270 196.246,247.041 196.647,248.807 197.263 C 249.472 197.494,251.452 198.378,253.207 199.227 C 254.963 200.076,256.400 200.691,256.400 200.592 C 256.400 200.346,252.659 198.462,250.054 197.396 C 247.596 196.389,247.426 196.705,252.267 193.299 C 258.308 189.049,263.290 184.203,267.791 178.200 C 270.675 174.355,276.139 162.805,275.416 162.083 C 275.300 161.967,275.091 162.445,274.951 163.144 M213.416 163.881 C 212.468 169.012,208.061 174.320,202.800 176.668 C 200.234 177.813,197.415 178.803,196.647 178.828 C 196.181 178.844,195.440 179.026,195.000 179.232 C 192.874 180.232,198.017 179.056,200.800 177.906 C 203.219 176.907,203.904 176.557,205.600 175.455 C 210.092 172.537,215.489 164.155,213.899 162.566 C 213.788 162.454,213.570 163.046,213.416 163.881 M190.200 180.020 C 189.411 180.235,189.822 180.270,191.400 180.123 C 192.720 180.000,193.875 179.832,193.967 179.750 C 194.264 179.482,191.434 179.685,190.200 180.020 M257.020 201.132 C 258.039 202.022,263.666 205.630,263.423 205.237 C 263.099 204.713,257.380 200.800,256.938 200.800 C 256.774 200.800,256.811 200.949,257.020 201.132 M264.000 205.963 C 264.000 206.203,264.164 206.400,264.365 206.400 C 265.242 206.400,273.669 215.254,275.120 217.700 C 275.479 218.305,275.925 218.800,276.111 218.800 C 276.679 218.800,273.966 215.255,270.869 211.950 C 267.539 208.397,264.000 205.312,264.000 205.963 M179.384 221.300 C 179.278 221.575,179.239 231.700,179.296 243.800 L 179.400 265.800 185.600 265.815 L 191.800 265.830 185.700 265.705 L 179.600 265.580 179.600 243.390 L 179.600 221.200 184.710 221.200 C 203.069 221.200,211.031 225.314,213.354 236.000 C 213.665 237.430,213.938 238.233,213.960 237.784 C 214.236 232.167,209.385 225.639,203.200 223.307 C 197.496 221.156,180.003 219.682,179.384 221.300 M278.000 221.705 C 278.000 221.989,281.180 227.757,281.189 227.490 C 281.204 227.053,278.432 221.600,278.195 221.600 C 278.088 221.600,278.000 221.647,278.000 221.705 M282.856 232.400 C 282.856 232.730,283.011 233.360,283.200 233.800 C 283.417 234.304,283.544 234.378,283.544 234.000 C 283.544 233.670,283.389 233.040,283.200 232.600 C 282.983 232.096,282.856 232.022,282.856 232.400 M283.646 235.200 C 283.665 235.530,283.824 236.250,284.000 236.800 L 284.320 237.800 284.354 236.800 C 284.373 236.250,284.213 235.530,284.000 235.200 C 283.655 234.667,283.616 234.667,283.646 235.200 M284.662 239.400 C 284.796 240.280,284.972 241.075,285.053 241.167 C 285.356 241.510,285.129 239.368,284.781 238.600 C 284.529 238.042,284.493 238.285,284.662 239.400 M214.148 242.800 C 214.148 245.110,214.214 246.055,214.295 244.900 C 214.376 243.745,214.376 241.855,214.295 240.700 C 214.214 239.545,214.148 240.490,214.148 242.800 M285.469 243.800 C 285.596 245.120,285.768 246.275,285.850 246.367 C 286.141 246.690,285.916 243.386,285.579 242.400 C 285.358 241.752,285.320 242.245,285.469 243.800 M286.310 252.400 C 286.420 255.590,286.575 258.275,286.655 258.367 C 286.942 258.697,286.746 249.763,286.432 248.200 C 286.242 247.258,286.192 248.986,286.310 252.400 M213.411 248.900 C 212.311 256.104,207.493 261.433,199.800 263.956 C 197.205 264.807,197.205 265.062,199.800 264.367 C 207.015 262.436,212.745 256.173,213.813 249.052 C 213.966 248.033,213.996 247.200,213.881 247.200 C 213.765 247.200,213.554 247.965,213.411 248.900 M286.479 265.044 C 286.436 266.388,286.313 268.368,286.206 269.444 L 286.012 271.400 286.421 269.800 C 286.646 268.920,286.769 266.940,286.695 265.400 L 286.559 262.600 286.479 265.044 M194.000 265.200 L 193.000 265.520 194.000 265.513 C 194.550 265.509,195.540 265.368,196.200 265.200 L 197.400 264.895 196.200 264.887 C 195.540 264.883,194.550 265.024,194.000 265.200 M285.454 273.154 C 285.300 274.118,285.258 274.991,285.361 275.094 C 285.630 275.363,286.115 272.545,285.907 271.922 C 285.812 271.636,285.608 272.190,285.454 273.154 M284.846 276.067 C 284.821 276.434,284.696 277.064,284.570 277.467 C 284.352 278.162,284.363 278.163,284.797 277.487 C 285.048 277.096,285.173 276.466,285.073 276.087 C 284.911 275.468,284.888 275.466,284.846 276.067 M283.500 280.442 C 283.128 281.605,282.882 282.615,282.954 282.687 C 283.183 282.917,284.472 279.217,284.321 278.763 C 284.241 278.524,283.872 279.279,283.500 280.442 M282.031 284.120 C 281.815 284.686,281.177 286.061,280.613 287.175 C 280.048 288.289,279.677 289.200,279.788 289.200 C 280.128 289.200,282.866 283.533,282.637 283.304 C 282.519 283.186,282.246 283.553,282.031 284.120 M277.559 292.300 C 273.336 298.873,264.076 306.712,255.669 310.831 C 254.276 311.513,253.233 312.166,253.349 312.282 C 253.638 312.571,259.962 309.119,263.428 306.781 C 269.232 302.865,276.686 295.147,279.151 290.500 C 280.106 288.699,279.252 289.665,277.559 292.300 M246.200 314.829 C 245.320 315.252,245.050 315.486,245.600 315.350 C 247.105 314.975,249.084 314.066,248.400 314.062 C 248.070 314.061,247.080 314.406,246.200 314.829 M116.015 315.000 C 117.541 317.233,120.474 319.607,121.692 319.595 C 121.971 319.593,121.390 319.139,120.400 318.587 C 119.410 318.036,117.896 316.823,117.034 315.892 C 116.173 314.962,115.715 314.560,116.015 315.000 M242.400 316.000 C 241.605 316.514,242.604 316.514,243.800 316.000 L 244.600 315.656 243.800 315.634 C 243.360 315.622,242.730 315.787,242.400 316.000 M239.400 316.800 L 238.600 317.144 239.400 317.166 C 239.840 317.178,240.470 317.013,240.800 316.800 C 241.595 316.286,240.596 316.286,239.400 316.800 M236.000 317.600 L 235.000 317.920 236.000 317.932 C 236.550 317.938,237.360 317.789,237.800 317.600 L 238.600 317.256 237.800 317.268 C 237.360 317.274,236.550 317.424,236.000 317.600 M231.600 318.400 L 230.200 318.695 231.600 318.719 C 232.370 318.733,233.360 318.589,233.800 318.400 L 234.600 318.056 233.800 318.081 C 233.360 318.094,232.370 318.238,231.600 318.400 M223.600 319.439 C 220.202 319.884,210.150 319.971,170.938 319.894 C 144.284 319.842,122.684 319.932,122.938 320.094 C 123.192 320.256,145.070 320.391,171.555 320.394 C 217.931 320.400,223.076 320.292,228.600 319.202 C 231.263 318.676,228.394 318.812,223.600 319.439 " stroke="none" fill="#fcacac" fill-rule="evenodd"></path></g></svg>